<?xml version="1.0" standalone="no"?><!DOCTYPE svg PUBLIC "-//W3C//DTD SVG 1.1//EN" "http://www.w3.org/Graphics/SVG/1.1/DTD/svg11.dtd"><svg t="1535096123191" class="icon" style="" viewBox="0 0 1024 1024" version="1.1" xmlns="http://www.w3.org/2000/svg" p-id="3491" xmlns:xlink="http://www.w3.org/1999/xlink" width="200" height="200"><defs><style type="text/css"></style></defs><path d="M512 1024C229.2224 1024 0 794.7776 0 512S229.2224 0 512 0s512 229.2224 512 512-229.2224 512-512 512z m0-998.4C243.3792 25.6 25.6 243.3792 25.6 512s217.7792 486.4 486.4 486.4 486.4-217.7792 486.4-486.4S780.6208 25.6 512 25.6z" fill="" p-id="3492"></path><path d="M512 1024C229.2224 1024 0 794.7776 0 512S229.2224 0 512 0s512 229.2224 512 512-229.2224 512-512 512z m0-998.4C243.3792 25.6 25.6 243.3792 25.6 512s217.7792 486.4 486.4 486.4 486.4-217.7792 486.4-486.4S780.6208 25.6 512 25.6z" fill="" p-id="3493"></path><path d="M682.6752 768H341.3248C322.4832 768 307.2 752.3584 307.2 733.0816v-255.9744c0-19.2768 15.2832-34.9184 34.1248-34.9184h34.1504v-46.5664C375.4752 318.6432 436.7104 256 512 256c75.2896 0 136.5504 62.6432 136.5504 139.6224v46.5664h34.1248c18.8416 0 34.1248 15.6416 34.1248 34.9184v255.9744c0 19.2768-15.2832 34.9184-34.1248 34.9184zM614.4 395.6224c0-57.728-45.9264-104.704-102.4-104.704s-102.4 46.976-102.4 104.704v46.5664h204.8v-46.5664z m68.2752 81.4848H341.3248v255.9744h341.3504v-255.9744zM512 541.1072c9.4208 0 17.0752 7.808 17.0752 17.4592v93.0816a17.28 17.28 0 0 1-17.0752 17.4592 17.28 17.28 0 0 1-17.0752-17.4592v-93.0816c0-9.6512 7.6544-17.4592 17.0752-17.4592z" fill="" p-id="3494"></path></svg>