<?xml version="1.0" standalone="no"?><!DOCTYPE svg PUBLIC "-//W3C//DTD SVG 1.1//EN" "http://www.w3.org/Graphics/SVG/1.1/DTD/svg11.dtd"><svg t="1536652580109" class="icon" style="" viewBox="0 0 1024 1024" version="1.1" xmlns="http://www.w3.org/2000/svg" p-id="6466" xmlns:xlink="http://www.w3.org/1999/xlink" width="200" height="200"><defs><style type="text/css"></style></defs><path d="M662.257 382.457c0 32.885-25.799 59.2-58.201 59.2-32.371 0-58.686-26.315-58.686-59.2 0-32.371 26.315-58.686 58.686-58.686 4.058 0 7.6 1.514 11.657 2.028-29.343-20.743-65.285-33.401-103.715-33.401-100.201 0-181.142 81.971-181.142 183.172 0 100.657 80.944 182.629 181.142 182.629 100.171 0 181.115-81.971 181.115-182.629 0-38.971-12.657-75.399-33.401-104.742 1.029 4.059 2.544 7.601 2.544 11.63zM1014.371 457.858c-84.485-154.829-283.827-311.142-502.371-311.142-218.571 0-417.915 156.314-501.886 311.142l-10.114 17.713 10.114 17.686c83.972 154.315 283.315 311.142 501.886 311.142 218.544 0 417.885-156.829 502.371-311.142l9.629-17.686-9.629-17.713zM512 731.571c-180.114 0-350.629-129.028-428.542-256 77.914-127.514 248.428-256 428.542-256 180.085 0 350.599 128.486 428.515 256-77.915 126.972-248.43 256-428.515 256z" p-id="6467"></path></svg>