<?xml version="1.0" standalone="no"?><!DOCTYPE svg PUBLIC "-//W3C//DTD SVG 1.1//EN" "http://www.w3.org/Graphics/SVG/1.1/DTD/svg11.dtd"><svg t="1536653321561" class="icon" style="" viewBox="0 0 1024 1024" version="1.1" xmlns="http://www.w3.org/2000/svg" p-id="11807" xmlns:xlink="http://www.w3.org/1999/xlink" width="200" height="200"><defs><style type="text/css"></style></defs><path d="M508 990.4c-261.6 0-474.4-212-474.4-474.4S246.4 41.6 508 41.6s474.4 212 474.4 474.4S769.6 990.4 508 990.4zM508 136.8c-209.6 0-379.2 169.6-379.2 379.2 0 209.6 169.6 379.2 379.2 379.2s379.2-169.6 379.2-379.2C887.2 306.4 717.6 136.8 508 136.8zM697.6 563.2 318.4 563.2c-26.4 0-47.2-21.6-47.2-47.2 0-26.4 21.6-47.2 47.2-47.2l379.2 0c26.4 0 47.2 21.6 47.2 47.2C744.8 542.4 724 563.2 697.6 563.2z" p-id="11808"></path></svg>