<?xml version="1.0" standalone="no"?><!DOCTYPE svg PUBLIC "-//W3C//DTD SVG 1.1//EN" "http://www.w3.org/Graphics/SVG/1.1/DTD/svg11.dtd"><svg t="1536653156691" class="icon" style="" viewBox="0 0 1024 1024" version="1.1" xmlns="http://www.w3.org/2000/svg" p-id="10327" xmlns:xlink="http://www.w3.org/1999/xlink" width="200" height="200"><defs><style type="text/css"></style></defs><path d="M704 320l-85.333333 0c-12.8 0-21.333333 8.533333-21.333333 21.333333l0 134.4-264.533333-151.466667 0 0C328.533333 322.133333 324.266667 320 320 320c-12.8 0-21.333333 8.533333-21.333333 21.333333l0 341.333333c0 12.8 8.533333 21.333333 21.333333 21.333333 4.266667 0 8.533333-2.133333 12.8-4.266667l0 0L597.333333 548.266667 597.333333 682.666667c0 12.8 8.533333 21.333333 21.333333 21.333333l85.333333 0c12.8 0 21.333333-8.533333 21.333333-21.333333L725.333333 341.333333C725.333333 328.533333 716.8 320 704 320zM341.333333 646.4 341.333333 377.6 576 512 341.333333 646.4zM682.666667 661.333333l-42.666667 0L640 362.666667l42.666667 0L682.666667 661.333333zM512 42.666667C251.733333 42.666667 42.666667 251.733333 42.666667 512s209.066667 469.333333 469.333333 469.333333 469.333333-209.066667 469.333333-469.333333S772.266667 42.666667 512 42.666667zM512 938.666667C277.333333 938.666667 85.333333 746.666667 85.333333 512 85.333333 277.333333 277.333333 85.333333 512 85.333333c234.666667 0 426.666667 192 426.666667 426.666667C938.666667 746.666667 746.666667 938.666667 512 938.666667z" p-id="10328"></path></svg>