<?xml version="1.0" standalone="no"?><!DOCTYPE svg PUBLIC "-//W3C//DTD SVG 1.1//EN" "http://www.w3.org/Graphics/SVG/1.1/DTD/svg11.dtd"><svg t="1534920655275" class="icon" style="" viewBox="0 0 1024 1024" version="1.1" xmlns="http://www.w3.org/2000/svg" p-id="3108" xmlns:xlink="http://www.w3.org/1999/xlink" width="200" height="200"><defs><style type="text/css"></style></defs><path d="M706.791963 261.520225c0-15.375176-12.440333-27.816532-27.816532-27.816532L234.028593 233.703693c-15.32094 0-27.816532 12.441357-27.816532 27.816532s12.495592 27.816532 27.816532 27.816532l444.947861 0C694.296371 289.335734 706.791963 276.895401 706.791963 261.520225z" p-id="3109"></path><path d="M915.086963 140.150994c-13.255908-7.66047-30.315446-3.15076-37.974893 10.213619L491.108692 818.382992c-7.714705 13.311167-3.15076 30.315446 10.214642 38.030152 4.345981 2.49789 9.126868 3.693112 13.853519 3.693112 9.614985 0 18.959817-4.942569 24.121374-13.906731l386.001331-668.020426C933.015288 164.869978 928.451342 147.865699 915.086963 140.150994z" p-id="3110"></path><path d="M696.524109 407.28303c-4.835122-4.02057-10.756995-6.682189-17.547655-6.682189L234.028593 400.600841c-15.32094 0-27.816532 12.386098-27.816532 27.762297 0 15.374152 12.495592 27.815509 27.816532 27.815509L668.273694 456.178647 696.524109 407.28303z" p-id="3111"></path><path d="M604.002902 567.387471 234.028593 567.387471c-15.32094 0-27.816532 12.495592-27.816532 27.817556 0 15.373129 12.495592 27.815509 27.816532 27.815509l337.867054 0L604.002902 567.387471z" p-id="3112"></path><path d="M206.21206 762.099105c0 15.321964 12.495592 27.817556 27.816532 27.817556L475.462341 789.916661l32.162514-55.632041L234.028593 734.284619C218.707652 734.284619 206.21206 746.669694 206.21206 762.099105z" p-id="3113"></path><path d="M706.847222 762.099105c0-15.429411-12.441357-27.815509-27.816532-27.815509L636.111181 734.283596l-32.108279 55.632041 75.027787 0C694.405865 789.916661 706.847222 777.421069 706.847222 762.099105z" p-id="3114"></path><path d="M762.425028 644.261303 762.315534 644.261303l0 232.906537c0 13.254885-14.993482 24.339338-32.813337 24.339338l-546.107819 0c-17.819854 0-32.813337-11.084453-32.813337-24.339338L150.581042 657.897881l0.054235 0L150.635277 146.778948c0-13.147438 15.048741-24.339338 32.868595-24.339338l546.053584 0c17.819854 0 32.868595 11.1919 32.868595 24.339338l0 146.468886 55.632041-96.269577 0-50.199309c0-44.060495-39.767725-79.917144-88.500637-79.917144L183.502849 66.861804c-48.786123 0-88.500637 35.856649-88.500637 79.917144l0 497.482355-0.054235 0 0 232.906537c0 44.113707 39.714514 79.969333 88.446401 79.969333l546.107819 0c48.787146 0 88.446401-35.855626 88.446401-79.969333L817.948599 657.897881l0.10847 0L818.057069 419.396929l-55.632041 96.269577L762.425028 644.261303z" p-id="3115"></path></svg>